HIERARCHY
ROOT joint_Root
{
	OFFSET 0.0 0.0 0.0
	CHANNELS 6 Xposition Yposition Zposition Zrotation Xrotation Yrotation 
	JOINT Hips
	{
		OFFSET 4.5925 91.4895 -427.239
		CHANNELS 6 Xposition Yposition Zposition Zrotation Xrotation Yrotation 
		JOINT Spine
		{
			OFFSET 15.7357 0.0 0.0
			CHANNELS 6 Xposition Yposition Zposition Zrotation Xrotation Yrotation 
			JOINT Chest
			{
				OFFSET 8.98455 -0.406207 0.0
				CHANNELS 6 Xposition Yposition Zposition Zrotation Xrotation Yrotation 
				JOINT Neck
				{
					OFFSET 16.3773 0.0 0.0
					CHANNELS 6 Xposition Yposition Zposition Zrotation Xrotation Yrotation 
					JOINT Head
					{
						OFFSET 6.45672 0.0 0.0
						CHANNELS 6 Xposition Yposition Zposition Zrotation Xrotation Yrotation 
						End Site
						{
							OFFSET 0.0 0.0 0.0
						}
					}
				}
				JOINT Shoulder_L
				{
					OFFSET 12.9942 -0.242716 4.98039
					CHANNELS 6 Xposition Yposition Zposition Zrotation Xrotation Yrotation 
					JOINT UpperArm_L
					{
						OFFSET 5.34809 0.0 0.0
						CHANNELS 6 Xposition Yposition Zposition Zrotation Xrotation Yrotation 
						JOINT LowerArm_L
						{
							OFFSET 24.3286 1.87007e-05 0.0
							CHANNELS 6 Xposition Yposition Zposition Zrotation Xrotation Yrotation 
							JOINT Hand_L
							{
								OFFSET 22.2916 0.0 0.0
								CHANNELS 6 Xposition Yposition Zposition Zrotation Xrotation Yrotation 
								End Site
								{
									OFFSET 0.0 0.0 0.0
								}
							}
						}
					}
				}
				JOINT Shoulder_R
				{
					OFFSET 12.9945 -0.242716 -4.98039
					CHANNELS 6 Xposition Yposition Zposition Zrotation Xrotation Yrotation 
					JOINT UpperArm_R
					{
						OFFSET -5.34813 0.0 0.0
						CHANNELS 6 Xposition Yposition Zposition Zrotation Xrotation Yrotation 
						JOINT LowerArm_R
						{
							OFFSET -24.3289 0.000322201 0.0
							CHANNELS 6 Xposition Yposition Zposition Zrotation Xrotation Yrotation 
							JOINT Hand_R
							{
								OFFSET -22.2915 -0.000108084 0.0
								CHANNELS 6 Xposition Yposition Zposition Zrotation Xrotation Yrotation 
								End Site
								{
									OFFSET 0.0 0.0 0.0
								}
							}
						}
					}
				}
			}
		}
		JOINT UpperLeg_L
		{
			OFFSET -2.19248 -6.46944 0.0
			CHANNELS 6 Xposition Yposition Zposition Zrotation Xrotation Yrotation 
			JOINT LowerLeg_L
			{
				OFFSET 39.0811 0.0 -1.23785e-05
				CHANNELS 6 Xposition Yposition Zposition Zrotation Xrotation Yrotation 
				JOINT Foot_L
				{
					OFFSET 40.9854 0.0 -1.26872e-05
					CHANNELS 6 Xposition Yposition Zposition Zrotation Xrotation Yrotation 
					JOINT Toes_L
					{
						OFFSET 11.7543 0.0 0.0
						CHANNELS 6 Xposition Yposition Zposition Zrotation Xrotation Yrotation 
						End Site
						{
							OFFSET 0.0 0.0 0.0
						}
					}
				}
			}
		}
		JOINT UpperLeg_R
		{
			OFFSET -2.19251 6.46944 0.0
			CHANNELS 6 Xposition Yposition Zposition Zrotation Xrotation Yrotation 
			JOINT LowerLeg_R
			{
				OFFSET -39.0811 -0.00228153 -0.0401928
				CHANNELS 6 Xposition Yposition Zposition Zrotation Xrotation Yrotation 
				JOINT Foot_R
				{
					OFFSET -40.9854 0.0 0.0
					CHANNELS 6 Xposition Yposition Zposition Zrotation Xrotation Yrotation 
					JOINT Toes_R
					{
						OFFSET -11.7543 0.0 0.0
						CHANNELS 6 Xposition Yposition Zposition Zrotation Xrotation Yrotation 
						End Site
						{
							OFFSET 0.0 0.0 0.0
						}
					}
				}
			}
		}
	}
}
MOTION
Frames:	9
Frame Time:	0.0333333
0.000000 0.000000 0.000000 0.000000 0.000000 -0.000000 3.686930 90.137500 517.334000 -90.013000 1.890100 -179.851000 15.735700 0.000005 -0.000001 93.459600 79.750800 -93.470900 8.984550 -0.406207 -0.000000 12.697200 1.224550 -0.158818 16.377300 -0.000001 -0.000001 -0.488635 -3.989750 2.092920 6.456720 -0.000001 -0.000000 -6.547370 -3.438070 -0.670472 12.994200 -0.242716 4.980390 -90.588200 2.099140 -74.344000 5.348090 -0.000007 -0.000001 -67.387400 31.418600 -12.385000 24.328600 0.000019 0.000005 10.905200 19.114600 -30.471600 22.291600 -0.000001 0.000005 14.195500 5.181010 3.191270 12.994500 -0.242716 -4.980390 89.070200 7.693430 -83.087700 -5.348130 -0.000001 -0.000004 -55.527600 29.402900 -26.655700 -24.328900 0.000322 -0.000009 -0.089508 -0.149903 -30.483800 -22.291500 -0.000108 -0.000004 17.843700 5.397880 -2.867680 -2.192480 -6.469440 -0.000000 -179.047000 -7.255810 -26.514600 39.081100 -0.000007 -0.000012 0.007706 -0.012421 31.815000 40.985400 -0.000006 -0.000013 -0.835341 3.505060 -59.711500 11.754300 -0.000000 0.000003 -0.002571 -0.035652 -18.026600 -2.192510 6.469440 -0.000001 -179.762000 18.297200 169.813000 -39.081100 -0.002282 -0.040193 -0.058307 0.093341 33.423200 -40.985400 0.000008 0.000006 6.391540 6.013280 -74.159200 -11.754300 -0.000006 -0.000006 -0.003351 -0.044511 -18.383400
0.000000 0.000000 0.000000 0.000000 0.000000 -0.000000 3.461020 89.854900 515.144000 -89.544100 2.924800 -179.968000 15.735700 0.000005 -0.000001 94.018000 79.730500 -94.065700 8.984550 -0.406207 -0.000000 12.725800 1.423150 -0.254085 16.377300 -0.000001 -0.000001 -0.726945 -3.831610 2.023540 6.456720 -0.000001 -0.000000 -6.710820 -3.134160 -0.590025 12.994200 -0.242716 4.980390 -90.570700 2.023480 -74.246500 5.348090 -0.000007 -0.000001 -68.251800 31.191300 -10.960300 24.328600 0.000019 0.000005 9.945750 20.396400 -26.709200 22.291600 -0.000001 0.000005 13.306200 5.176670 3.297590 12.994500 -0.242716 -4.980390 89.115500 7.518880 -83.271300 -5.348130 -0.000001 -0.000004 -54.724700 29.630900 -27.800500 -24.328900 0.000322 -0.000009 -0.128789 -0.206713 -31.701700 -22.291500 -0.000108 -0.000004 18.085800 5.404960 -3.099230 -2.192480 -6.469440 -0.000000 -179.208000 -8.767030 -27.954000 39.081100 -0.000007 -0.000012 0.060287 -0.115932 27.475200 40.985400 -0.000006 -0.000013 0.238517 4.542140 -58.576000 11.754300 -0.000000 0.000003 -0.003152 -0.042314 -18.297700 -2.192510 6.469440 -0.000001 179.997000 18.035900 171.396000 -39.081100 -0.002282 -0.040193 -0.029930 0.050416 33.384900 -40.985400 0.000008 0.000006 6.718210 6.577380 -75.752000 -11.754300 -0.000006 -0.000006 -0.003427 -0.045337 -18.417100
0.000000 0.000000 0.000000 0.000000 0.000000 -0.000000 3.048450 89.504200 512.688000 -89.751900 3.868250 179.886000 15.735700 0.000005 -0.000001 93.962800 79.766500 -94.296900 8.984550 -0.406207 -0.000000 12.658900 1.386640 -0.821965 16.377300 -0.000001 -0.000001 -0.425614 -3.619980 2.249620 6.456720 -0.000001 -0.000000 -7.013560 -2.955700 -0.707041 12.994200 -0.242716 4.980390 -90.548800 1.960470 -74.359400 5.348090 -0.000007 -0.000001 -68.937700 31.154300 -9.922660 24.328600 0.000019 0.000005 8.839210 21.610900 -22.891500 22.291600 -0.000001 0.000005 12.678100 5.159730 3.710260 12.994500 -0.242716 -4.980390 89.133700 7.508150 -83.399000 -5.348130 -0.000001 -0.000004 -54.096300 29.620900 -28.675700 -24.328900 0.000322 -0.000009 -0.303002 -0.474593 -32.465700 -22.291500 -0.000108 -0.000004 18.216600 5.410760 -3.290050 -2.192480 -6.469440 -0.000000 179.684000 -10.769100 -29.122700 39.081100 -0.000007 -0.000012 0.055360 -0.112012 26.299900 40.985400 -0.000006 -0.000013 0.973330 4.518070 -56.443600 11.754300 -0.000000 0.000003 -0.003027 -0.040918 -18.240800 -2.192510 6.469440 -0.000001 178.984000 17.029400 172.738000 -39.081100 -0.002282 -0.040193 0.009541 -0.009306 33.874300 -40.985400 0.000008 0.000006 6.499690 6.456010 -77.294900 -11.754300 -0.000006 -0.000006 -0.003438 -0.045459 -18.422000
0.000000 0.000000 0.000000 0.000000 0.000000 -0.000000 2.476020 88.973700 509.740000 -90.342100 4.634460 -179.985000 15.735700 0.000005 -0.000001 93.266800 79.864600 -94.015100 8.984550 -0.406207 -0.000000 12.481400 1.113610 -1.618250 16.377300 -0.000001 -0.000001 0.089081 -3.507800 2.366220 6.456720 -0.000001 -0.000000 -6.817180 -2.802350 -0.592002 12.994200 -0.242716 4.980390 -90.506100 1.804570 -74.331000 5.348090 -0.000007 -0.000001 -69.608000 31.221000 -9.001700 24.328600 0.000019 0.000005 7.810180 22.978000 -19.360400 22.291600 -0.000001 0.000005 11.705200 5.162310 3.646190 12.994500 -0.242716 -4.980390 89.140900 7.346420 -83.311600 -5.348130 -0.000001 -0.000004 -54.136300 29.764700 -28.761000 -24.328900 0.000322 -0.000009 -0.236371 -0.361568 -33.054200 -22.291500 -0.000108 -0.000004 18.539300 5.409660 -3.253930 -2.192480 -6.469440 -0.000000 178.980000 -10.493500 -29.757200 39.081100 -0.000007 -0.000012 0.026552 -0.046864 29.534600 40.985400 -0.000006 -0.000013 1.452220 3.309750 -52.549900 11.754300 -0.000000 0.000003 -0.001986 -0.028544 -17.737400 -2.192510 6.469440 -0.000001 177.373000 15.607900 174.269000 -39.081100 -0.002282 -0.040193 0.014267 -0.015606 35.119900 -40.985400 0.000008 0.000006 6.088340 5.658120 -78.880200 -11.754300 -0.000006 -0.000006 -0.003379 -0.044817 -18.395900
0.000000 0.000000 0.000000 0.000000 0.000000 -0.000000 1.821660 88.445600 506.518000 -91.153800 5.448790 -179.871000 15.735700 0.000005 -0.000001 92.791100 80.075500 -94.040200 8.984550 -0.406207 -0.000000 12.071800 0.911170 -2.593960 16.377300 -0.000001 -0.000001 0.572602 -3.431790 2.452280 6.456720 -0.000001 -0.000000 -6.215160 -2.837320 -0.332991 12.994200 -0.242716 4.980390 -90.552500 1.956700 -74.229200 5.348090 -0.000007 -0.000001 -69.794600 31.158800 -8.372840 24.328600 0.000019 0.000005 7.081670 24.359500 -16.762500 22.291600 -0.000001 0.000005 10.454400 5.133300 4.341190 12.994500 -0.242716 -4.980390 89.086000 7.542630 -83.070100 -5.348130 -0.000001 -0.000004 -54.301600 29.810900 -27.918300 -24.328900 0.000322 -0.000009 -0.158446 -0.235378 -33.765900 -22.291500 -0.000108 -0.000004 18.600400 5.410260 -3.273900 -2.192480 -6.469440 -0.000000 178.732000 -7.861880 -30.192300 39.081100 -0.000007 -0.000012 -0.033994 0.049320 34.577300 40.985400 -0.000006 -0.000013 0.978159 0.194569 -54.790700 11.754300 -0.000000 0.000003 -0.000157 -0.002598 -16.683000 -2.192510 6.469440 -0.000001 175.640000 13.826500 174.896000 -39.081100 -0.002282 -0.040193 0.017220 -0.018043 37.681200 -40.985400 0.000008 0.000006 5.398400 4.544440 -78.583400 -11.754300 -0.000006 -0.000006 -1.007820 -1.178040 -20.412000
0.000000 0.000000 0.000000 0.000000 0.000000 -0.000000 1.289280 88.117000 503.322000 -91.122400 5.564140 -179.072000 15.735700 0.000005 -0.000001 92.213000 79.970700 -93.641200 8.984550 -0.406207 -0.000000 12.288900 0.711240 -2.932380 16.377300 -0.000001 -0.000001 0.629716 -3.608190 2.293320 6.456720 -0.000001 -0.000000 -5.858970 -3.057250 0.144712 12.994200 -0.242716 4.980390 -90.615700 2.178850 -74.215800 5.348090 -0.000007 -0.000001 -69.316100 31.083400 -8.525970 24.328600 0.000019 0.000005 6.503920 25.071300 -15.058300 22.291600 -0.000001 0.000005 9.729270 5.127360 4.479650 12.994500 -0.242716 -4.980390 89.000500 7.942950 -82.804400 -5.348130 -0.000001 -0.000004 -55.328100 29.133200 -25.858500 -24.328900 0.000322 -0.000009 0.023613 0.035616 -34.737200 -22.291500 -0.000108 -0.000004 18.827300 5.413220 -3.372010 -2.192480 -6.469440 -0.000000 179.246000 -4.617650 -29.239300 39.081100 -0.000007 -0.000012 -0.151556 0.187549 38.941800 40.985400 -0.000006 -0.000013 0.165830 -2.679970 -59.233900 11.754300 -0.000000 0.000003 -0.000016 -0.000208 -16.585700 -2.192510 6.469440 -0.000001 175.063000 11.889600 174.265000 -39.081100 -0.002282 -0.040193 0.040439 -0.039284 43.415900 -40.985400 0.000008 0.000006 4.898170 2.573180 -75.522500 -11.754300 -0.000006 -0.000006 -0.026867 -0.202730 -24.871400
0.000000 0.000000 0.000000 0.000000 0.000000 -0.000000 0.788526 88.037700 500.367000 -90.914000 5.949330 -178.128000 15.735700 0.000005 -0.000001 92.597200 79.718800 -94.092000 8.984550 -0.406207 -0.000000 12.789300 0.857257 -3.085590 16.377300 -0.000001 -0.000001 0.811219 -3.633520 2.040880 6.456720 -0.000001 -0.000000 -5.966870 -3.407320 0.201639 12.994200 -0.242716 4.980390 -90.625800 2.199760 -74.116000 5.348090 -0.000007 -0.000001 -68.609000 31.133000 -9.629540 24.328600 0.000019 0.000005 6.190750 24.876400 -14.459100 22.291600 -0.000001 0.000005 9.902810 5.111160 4.856320 12.994500 -0.242716 -4.980390 89.024700 7.887350 -82.928100 -5.348130 -0.000001 -0.000004 -57.343700 27.822300 -23.115200 -24.328900 0.000322 -0.000009 -0.164982 -0.231326 -35.314400 -22.291500 -0.000108 -0.000004 19.194400 5.419830 -3.593410 -2.192480 -6.469440 -0.000000 179.152000 -4.980380 -27.280000 39.081100 -0.000007 -0.000012 -0.202444 0.230131 41.338200 40.985400 -0.000006 -0.000013 0.411506 -2.781260 -62.661000 11.754300 -0.000000 0.000003 -0.000027 -0.000332 -16.590500 -2.192510 6.469440 -0.000001 174.973000 9.774150 171.446000 -39.081100 -0.002282 -0.040193 0.085108 -0.064465 51.782200 -40.985400 0.000008 0.000006 4.833210 0.566571 -69.165800 -11.754300 -0.000006 -0.000006 -0.060906 -0.334707 -30.398900
0.000000 0.000000 0.000000 0.000000 0.000000 -0.000000 0.360619 88.145300 497.722000 -90.812200 6.102560 -177.391000 15.735700 0.000005 -0.000001 92.149200 79.522300 -93.654700 8.984550 -0.406207 -0.000000 13.186600 0.706676 -3.092890 16.377300 -0.000001 -0.000001 0.878857 -3.536240 1.799560 6.456720 -0.000001 -0.000000 -5.932570 -3.345050 -0.271589 12.994200 -0.242716 4.980390 -90.627400 2.201130 -74.086000 5.348090 -0.000007 -0.000001 -67.944000 30.383600 -10.621300 24.328600 0.000019 0.000005 6.446220 23.990600 -15.530200 22.291600 -0.000001 0.000005 10.445800 5.109640 4.892930 12.994500 -0.242716 -4.980390 89.054200 7.655660 -82.935500 -5.348130 -0.000001 -0.000004 -58.766300 27.582500 -21.231700 -24.328900 0.000322 -0.000009 -0.758921 -1.094310 -34.710300 -22.291500 -0.000108 -0.000004 19.359600 5.422520 -3.683770 -2.192480 -6.469440 -0.000000 178.892000 -6.261500 -24.975800 39.081100 -0.000007 -0.000012 -0.206957 0.228020 42.228300 40.985400 -0.000006 -0.000013 1.038990 -1.887760 -65.160100 11.754300 -0.000000 0.000003 -0.000043 -0.000491 -16.596700 -2.192510 6.469440 -0.000001 175.153000 7.999060 167.038000 -39.081100 -0.002282 -0.040193 0.121616 -0.066815 60.567200 -40.985400 0.000008 0.000006 3.963610 -2.007730 -61.232100 -11.754300 -0.000006 -0.000006 -0.039714 -0.258967 -27.210100
0.000000 0.000000 0.000000 0.000000 0.000000 -0.000000 0.132954 88.373700 495.302000 -90.712800 5.616800 -177.298000 15.735700 0.000005 -0.000001 90.619600 79.547100 -92.084000 8.984550 -0.406207 -0.000000 13.142300 0.155206 -2.946800 16.377300 -0.000001 -0.000001 0.965837 -3.492990 1.592850 6.456720 -0.000001 -0.000000 -5.800060 -3.065310 -0.564412 12.994200 -0.242716 4.980390 -90.616600 2.186490 -74.248000 5.348090 -0.000007 -0.000001 -66.994200 29.617600 -11.701400 24.328600 0.000019 0.000005 7.103500 22.910000 -17.751400 22.291600 -0.000001 0.000005 11.259000 5.128110 4.463180 12.994500 -0.242716 -4.980390 89.022900 7.607650 -82.659300 -5.348130 -0.000001 -0.000004 -59.477400 28.408000 -19.955000 -24.328900 0.000322 -0.000009 -0.682671 -1.039160 -33.259700 -22.291500 -0.000108 -0.000004 18.846200 5.416860 -3.492890 -2.192480 -6.469440 -0.000000 178.813000 -6.779880 -23.005800 39.081100 -0.000007 -0.000012 -0.203105 0.224239 42.169400 40.985400 -0.000006 -0.000013 1.483090 -0.993640 -66.993400 11.754300 -0.000000 0.000003 -0.000038 -0.000441 -16.594800 -2.192510 6.469440 -0.000001 175.846000 8.340750 162.868000 -39.081100 -0.002282 -0.040193 0.129570 -0.054749 66.583800 -40.985400 0.000008 0.000006 5.012460 -4.847550 -58.110700 -11.754300 -0.000006 -0.000006 -0.014526 -0.134809 -22.072500
